<svg xmlns="http://www.w3.org/2000/svg"  viewBox="0 0 128 128" width="100px" height="100px"><path fill="#e6e7e8" d="M120.5,60.453a5.006,5.006,0,0,0,5-5v-9a5.006,5.006,0,0,0-5-5H103V21.047a1,1,0,0,0-1-1H93.75v-3.5a5.006,5.006,0,0,0-5-5h-37a5.006,5.006,0,0,0-5,5v3.5H38.5a1,1,0,0,0-1,1V41.453H20a5.006,5.006,0,0,0-5,5v9a5.006,5.006,0,0,0,5,5H35.547l-14.385,11H11.5a5.006,5.006,0,0,0-5,5v9a5.006,5.006,0,0,0,5,5h20a5.006,5.006,0,0,0,5-5v-9a5.006,5.006,0,0,0-5-5H24.453L38.5,60.711,52.547,71.453H45.5a5.006,5.006,0,0,0-5,5v9a5.006,5.006,0,0,0,5,5h20a5.006,5.006,0,0,0,5-5v-9a5.006,5.006,0,0,0-5-5H55.838l-14.385-11H57a5.006,5.006,0,0,0,5-5v-9a5.006,5.006,0,0,0-5-5H39.5V22.047h7.25v3.5a5.006,5.006,0,0,0,5,5h37a5.006,5.006,0,0,0,5-5v-3.5H101V41.453H83.5a5.006,5.006,0,0,0-5,5v9a5.006,5.006,0,0,0,5,5H101v11H83.5a5.006,5.006,0,0,0-5,5v9a5.006,5.006,0,0,0,5,5H101v11H83.5a5.006,5.006,0,0,0-5,5v9a5.006,5.006,0,0,0,5,5h37a5.006,5.006,0,0,0,5-5v-9a5.006,5.006,0,0,0-5-5H103v-11h17.5a5.006,5.006,0,0,0,5-5v-9a5.006,5.006,0,0,0-5-5H103v-11Z"/><rect width="45" height="17" x="43.75" y="8.547" fill="#fa759e" rx="4" ry="4"/><path fill="#fff" d="M84.75,8.547h-37a4,4,0,0,0-4,4v3a4,4,0,0,1,4-4h37a4,4,0,0,1,4,4v-3A4,4,0,0,0,84.75,8.547Z"/><rect width="45" height="17" x="75.5" y="38.453" fill="#0089ef" rx="4" ry="4"/><rect width="45" height="17" x="12" y="38.453" fill="#0089ef" rx="4" ry="4"/><rect width="28" height="17" x="3.5" y="68.453" fill="#6dc9f7" rx="4" ry="4"/><rect width="28" height="17" x="37.5" y="68.453" fill="#6dc9f7" rx="4" ry="4"/><rect width="45" height="17" x="75.5" y="68.453" fill="#6dc9f7" rx="4" ry="4"/><rect width="45" height="17" x="75.5" y="98.453" fill="#d4fbff" rx="4" ry="4"/><path fill="#3a2c60" d="M116.5,56.453a5.006,5.006,0,0,0,5-5v-9a5.006,5.006,0,0,0-5-5H99V17.047a1,1,0,0,0-1-1H89.75v-3.5a5.006,5.006,0,0,0-5-5h-37a5.006,5.006,0,0,0-5,5v3.5H34.5a1,1,0,0,0-1,1V37.453H16a5.006,5.006,0,0,0-5,5v9a5.006,5.006,0,0,0,5,5H31.547l-14.385,11H7.5a5.006,5.006,0,0,0-5,5v9a5.006,5.006,0,0,0,5,5h20a5.006,5.006,0,0,0,5-5v-9a5.006,5.006,0,0,0-5-5H20.453L34.5,56.711,48.547,67.453H41.5a5.006,5.006,0,0,0-5,5v9a5.006,5.006,0,0,0,5,5h20a5.006,5.006,0,0,0,5-5v-9a5.006,5.006,0,0,0-5-5H51.838l-14.385-11H53a5.006,5.006,0,0,0,5-5v-9a5.006,5.006,0,0,0-5-5H35.5V18.047h7.25v3.5a5.006,5.006,0,0,0,5,5h37a5.006,5.006,0,0,0,5-5v-3.5H97V37.453H79.5a5.006,5.006,0,0,0-5,5v9a5.006,5.006,0,0,0,5,5H97v11H79.5a5.006,5.006,0,0,0-5,5v9a5.006,5.006,0,0,0,5,5H97v11H79.5a5.006,5.006,0,0,0-5,5v9a5.006,5.006,0,0,0,5,5H92a1,1,0,0,0,0-2H79.5a3,3,0,0,1-3-3v-9a3,3,0,0,1,3-3h37a3,3,0,0,1,3,3v9a3,3,0,0,1-3,3h-7.688a1,1,0,1,0,0,2H116.5a5.006,5.006,0,0,0,5-5v-9a5.006,5.006,0,0,0-5-5H99v-11h17.5a5.006,5.006,0,0,0,5-5v-9a5.006,5.006,0,0,0-5-5H99v-11Zm-86,16v9a3,3,0,0,1-3,3H7.5a3,3,0,0,1-3-3v-9a3,3,0,0,1,3-3h20A3,3,0,0,1,30.5,72.453Zm34,0v9a3,3,0,0,1-3,3h-20a3,3,0,0,1-3-3v-9a3,3,0,0,1,3-3h20A3,3,0,0,1,64.5,72.453Zm-8.5-30v9a3,3,0,0,1-3,3H16a3,3,0,0,1-3-3v-9a3,3,0,0,1,3-3H53A3,3,0,0,1,56,42.453ZM87.75,21.547a3,3,0,0,1-3,3h-37a3,3,0,0,1-3-3v-9a3,3,0,0,1,3-3h37a3,3,0,0,1,3,3ZM119.5,72.453v9a3,3,0,0,1-3,3h-37a3,3,0,0,1-3-3v-9a3,3,0,0,1,3-3h37A3,3,0,0,1,119.5,72.453Zm-43-21v-9a3,3,0,0,1,3-3h37a3,3,0,0,1,3,3v9a3,3,0,0,1-3,3h-37A3,3,0,0,1,76.5,51.453Z"/><path fill="#3a2c60" d="M104.625,114.453h-8.5a1,1,0,0,0,0,2h8.5a1,1,0,0,0,0-2Z"/></svg>