<svg xmlns="http://www.w3.org/2000/svg"  viewBox="0 0 128 128" width="100px" height="100px"><path fill="#e6e7e8" d="M100.732,85.551a22.051,22.051,0,0,0,2.6-43.95c.011-.2.018-.395.018-.595A33.434,33.434,0,0,0,38.175,30.512c-.456-.03-.9-.05-1.354-.05a27.544,27.544,0,0,0-1.346,55.055V98.8l-6.724,4.642a1.026,1.026,0,0,0-.442.843v9.487a5.417,5.417,0,1,0,2.048,0v-8.95l6.723-4.643a1.023,1.023,0,0,0,.442-.842V85.551H52.877v6.081l-6.724,4.643a1.025,1.025,0,0,0-.442.842V106.6a5.417,5.417,0,1,0,2.048,0v-8.95l6.724-4.643a1.022,1.022,0,0,0,.441-.842V85.551H65.012v26.171a5.417,5.417,0,1,0,2.047,0V85.551H77.147v6.618a1.02,1.02,0,0,0,.442.842l6.724,4.643v8.95a5.417,5.417,0,1,0,2.047,0V97.117a1.025,1.025,0,0,0-.442-.842l-6.724-4.643V85.551H94.549V99.335a1.025,1.025,0,0,0,.442.842l6.724,4.643v8.95a5.417,5.417,0,1,0,2.047,0v-9.487a1.023,1.023,0,0,0-.442-.843L96.6,98.8V85.551Z"/><path fill="#d4fbff" d="M98.158,38.432c.024-.508.077-1.008.077-1.521A32.41,32.41,0,0,0,34.812,27.5c-.69-.054-1.381-.106-2.085-.106a26.521,26.521,0,0,0,0,53.042h63.91a21.028,21.028,0,0,0,1.521-42Z"/><path fill="#fff" d="M96.637,77.433H32.727A26.519,26.519,0,0,1,6.251,52.412c-.028.5-.045,1-.045,1.5A26.521,26.521,0,0,0,32.727,80.433h63.91a21.039,21.039,0,0,0,21.039-21.039c0-.518-.037-1.026-.074-1.534A21.024,21.024,0,0,1,96.637,77.433Z"/><circle cx="81.241" cy="107.823" r="4.393" fill="#0089ef"/><circle cx="98.644" cy="114.988" r="4.393" fill="#0089ef"/><circle cx="61.941" cy="112.941" r="4.393" fill="#0089ef"/><circle cx="42.641" cy="107.823" r="4.393" fill="#0089ef"/><circle cx="25.238" cy="114.988" r="4.393" fill="#0089ef"/><path fill="#fa759e" d="M51.7,60.535v.059a3.42,3.42,0,0,1-4.78,3.138L27.646,55.379a4.907,4.907,0,0,1-2.956-4.5v-.052a4.906,4.906,0,0,1,2.956-4.5l19.272-8.353a3.42,3.42,0,0,1,4.78,3.138V41.2a3.42,3.42,0,0,1-2.19,3.192L32.879,50.8l16.652,6.555A3.421,3.421,0,0,1,51.7,60.535Z"/><path fill="#fa759e" d="M66.926,30.253A3.177,3.177,0,0,0,63.09,32.6L54.615,67.612a3.181,3.181,0,0,0,2.341,3.836,3.252,3.252,0,0,0,.751.089,3.166,3.166,0,0,0,3.085-2.431l8.475-35.017A3.181,3.181,0,0,0,66.926,30.253Z"/><path fill="#fa759e" d="M96.243,55.311,76.969,63.7a3.42,3.42,0,0,1-4.785-3.135V60.52a3.42,3.42,0,0,1,2.17-3.183l16.7-6.558L74.37,44.322a3.42,3.42,0,0,1-2.186-3.19h0a3.42,3.42,0,0,1,4.775-3.14l19.269,8.313a4.907,4.907,0,0,1,2.964,4.506h0A4.906,4.906,0,0,1,96.243,55.311Z"/><path fill="#3a2c60" d="M96.637,81.433a22.028,22.028,0,0,0,2.579-43.906c.011-.2.019-.409.019-.616A33.41,33.41,0,0,0,34.1,26.442c-.462-.03-.91-.05-1.37-.05A27.519,27.519,0,0,0,31.4,81.4V94.715l-6.734,4.65a1,1,0,0,0-.432.823V109.7a5.393,5.393,0,1,0,2,0v-8.983l6.734-4.65a1,1,0,0,0,.432-.823V81.433h15.4V87.55L42.072,92.2a1,1,0,0,0-.431.822v9.509a5.393,5.393,0,1,0,2,0V93.547l6.734-4.65a1,1,0,0,0,.431-.822V81.433H60.941v26.216a5.393,5.393,0,1,0,2,0V81.433H73.076v6.642a1,1,0,0,0,.431.822l6.734,4.65v8.984a5.394,5.394,0,1,0,2,0V93.022a1,1,0,0,0-.431-.822l-6.734-4.65V81.433h15.4V95.24a1,1,0,0,0,.432.823l6.734,4.65V109.7a5.393,5.393,0,1,0,2,0v-9.508a1,1,0,0,0-.432-.823l-6.734-4.65V81.433ZM28.631,114.988a3.393,3.393,0,1,1-3.393-3.393A3.4,3.4,0,0,1,28.631,114.988Zm17.4-7.165a3.393,3.393,0,1,1-3.393-3.393A3.4,3.4,0,0,1,46.034,107.823Zm19.3,5.118a3.393,3.393,0,1,1-3.393-3.393A3.4,3.4,0,0,1,65.334,112.941Zm19.3-5.118a3.394,3.394,0,1,1-3.394-3.393A3.4,3.4,0,0,1,84.635,107.823Zm17.4,7.165a3.393,3.393,0,1,1-3.393-3.393A3.4,3.4,0,0,1,102.037,114.988ZM7.206,53.912a25.549,25.549,0,0,1,25.521-25.52c.645,0,1.291.046,2.008.1a.993.993,0,0,0,1.035-.707,31.409,31.409,0,0,1,61.465,9.124c0,.306-.021.608-.042.909-.012.188-.025.376-.034.565a1,1,0,0,0,.928,1.044,20.028,20.028,0,0,1-1.45,40H32.727A25.55,25.55,0,0,1,7.206,53.912Z"/><path fill="#3a2c60" d="M48.28,65.016A4.424,4.424,0,0,0,52.7,60.594v-.059a4.395,4.395,0,0,0-2.8-4.113L35.634,50.807l14.233-5.483A4.479,4.479,0,0,0,52.7,41.106a4.42,4.42,0,0,0-6.177-4.056L27.248,45.4a5.948,5.948,0,0,0,0,10.894L46.52,64.649A4.413,4.413,0,0,0,48.28,65.016ZM25.69,50.824a3.905,3.905,0,0,1,2.354-3.586l19.272-8.353a2.444,2.444,0,0,1,.969-.2,2.4,2.4,0,0,1,1.322.4,2.5,2.5,0,0,1-.459,4.375L32.52,49.864a1,1,0,0,0-.007,1.864l16.652,6.555A2.408,2.408,0,0,1,50.7,60.535v.059a2.419,2.419,0,0,1-3.382,2.22L28.044,54.462A3.925,3.925,0,0,1,25.69,50.824Z"/><path fill="#3a2c60" d="M56.723,72.42a4.216,4.216,0,0,0,.984.118,4.165,4.165,0,0,0,4.058-3.2l1.469-6.07A1,1,0,1,0,61.29,62.8l-1.47,6.071a2.195,2.195,0,0,1-2.629,1.605,2.182,2.182,0,0,1-1.6-2.629L64.061,32.83A2.178,2.178,0,0,1,68.3,33.854L64.993,47.5a1,1,0,0,0,1.944.47l3.3-13.643a4.178,4.178,0,1,0-8.121-1.966L53.644,67.376a4.18,4.18,0,0,0,3.079,5.044Z"/><path fill="#3a2c60" d="M65.317,50.408a1,1,0,0,0-1.207.737l-1.968,8.132a1,1,0,0,0,1.945.471l1.967-8.133A1,1,0,0,0,65.317,50.408Z"/><path fill="#3a2c60" d="M71.184,60.568a4.418,4.418,0,0,0,6.185,4.053l19.274-8.392a5.909,5.909,0,0,0-.018-10.842l-19.27-8.313a4.42,4.42,0,1,0-3.346,8.18l14.3,5.532-14.316,5.62A4.412,4.412,0,0,0,71.184,60.568Zm3.535-2.3,16.7-6.559a1,1,0,0,0,0-1.863L74.731,43.389a2.434,2.434,0,0,1-1.547-2.257A2.432,2.432,0,0,1,75.6,38.707a2.432,2.432,0,0,1,.966.2l19.27,8.313a3.909,3.909,0,0,1,.011,7.172L76.57,62.787a2.42,2.42,0,0,1-3.386-2.266A2.407,2.407,0,0,1,74.719,58.268Z"/></svg>