<svg xmlns="http://www.w3.org/2000/svg"  viewBox="0 0 128 128" width="100px" height="100px"><path fill="#e6e7e8" d="M119.338,22.381H61.36c-1.769,0-3.426-0.868-4.433-2.322l-2.578-3.725c-1.38-1.993-3.651-3.184-6.077-3.184 h-35.61c-2.757,0-5,2.243-5,5v95.698c0,2.757,2.243,5,5,5h106.676c2.757,0,5-2.243,5-5V27.381 C124.338,24.625,122.095,22.381,119.338,22.381z"/><path fill="#d4fbff" d="M119.337,34.163H4.662v75.687c0,2.209,1.791,4,4,4h106.675c2.209,0,4-1.791,4-4V34.163z"/><path fill="#fa759e" d="M72.886,59.963H51.114c-1.105,0-2-0.895-2-2V46.5c0-1.105,0.895-2,2-2h21.772c1.105,0,2,0.895,2,2v11.462 C74.886,59.067,73.99,59.963,72.886,59.963z"/><path fill="#fa759e" d="M38.895,100.175h-17.85c-1.105,0-2-0.895-2-2V86.712c0-1.105,0.895-2,2-2h17.85c1.105,0,2,0.895,2,2v11.462 C40.895,99.279,39.999,100.175,38.895,100.175z"/><path fill="#fa759e" d="M70.925,100.175h-17.85c-1.105,0-2-0.895-2-2V86.712c0-1.105,0.895-2,2-2h17.85c1.105,0,2,0.895,2,2v11.462 C72.925,99.279,72.03,100.175,70.925,100.175z"/><path fill="#fa759e" d="M102.955,100.175h-17.85c-1.105,0-2-0.895-2-2V86.712c0-1.105,0.895-2,2-2h17.85c1.105,0,2,0.895,2,2 v11.462C104.955,99.279,104.06,100.175,102.955,100.175z"/><path fill="#fff" d="M115.337,110.849H8.662c-2.209,0-4-1.791-4-4v3c0,2.209,1.791,4,4,4h106.675c2.209,0,4-1.791,4-4v-3 C119.337,109.058,117.546,110.849,115.337,110.849z"/><path fill="#0089ef" d="M52.106,16.629l-2.579-3.725c-1.194-1.724-3.157-2.753-5.254-2.753H8.662c-2.209,0-4,1.791-4,4v20.012 h114.675V23.382c0-2.209-1.791-4-4-4H57.36C55.263,19.382,53.299,18.353,52.106,16.629z"/><g><path fill="#3a2c60" d="M32.38,71.865c-1.88,0-3.41,1.53-3.41,3.41v8.438h-7.925c-1.654,0-3,1.346-3,3v11.462c0,1.654,1.346,3,3,3 h17.85c1.654,0,3-1.346,3-3V86.712c0-1.654-1.346-3-3-3H30.97v-8.438c0-0.777,0.632-1.41,1.41-1.41H61v9.848h-7.925 c-1.654,0-3,1.346-3,3v11.462c0,1.654,1.346,3,3,3h17.85c1.654,0,3-1.346,3-3V86.712c0-1.654-1.346-3-3-3H63v-9.848h28.62 c0.777,0,1.41,0.632,1.41,1.41v8.438h-7.925c-1.654,0-3,1.346-3,3v11.462c0,1.654,1.346,3,3,3h17.85c1.654,0,3-1.346,3-3V86.712 c0-1.654-1.346-3-3-3H95.03v-8.438c0-1.88-1.53-3.41-3.41-3.41H63V60.962h9.886c1.654,0,3-1.346,3-3V46.5c0-1.654-1.346-3-3-3 H51.114c-1.654,0-3,1.346-3,3v11.462c0,1.654,1.346,3,3,3H61v10.902H32.38z M39.895,86.712v11.462c0,0.551-0.449,1-1,1h-17.85 c-0.551,0-1-0.449-1-1V86.712c0-0.551,0.449-1,1-1h17.85C39.446,85.712,39.895,86.161,39.895,86.712z M71.925,86.712v11.462 c0,0.551-0.449,1-1,1h-17.85c-0.551,0-1-0.449-1-1V86.712c0-0.551,0.449-1,1-1h17.85C71.476,85.712,71.925,86.161,71.925,86.712z M103.955,86.712v11.462c0,0.551-0.449,1-1,1h-17.85c-0.551,0-1-0.449-1-1V86.712c0-0.551,0.449-1,1-1h17.85 C103.506,85.712,103.955,86.161,103.955,86.712z M50.114,57.962V46.5c0-0.551,0.449-1,1-1h21.772c0.551,0,1,0.449,1,1v11.462 c0,0.551-0.449,1-1,1H51.114C50.563,58.962,50.114,58.514,50.114,57.962z"/><path fill="#3a2c60" d="M4.662,58c0.552,0,1-0.448,1-1v-8.75c0-0.552-0.448-1-1-1s-1,0.448-1,1V57C3.662,57.552,4.11,58,4.662,58z"/><path fill="#3a2c60" d="M115.338,18.382H57.36c-1.769,0-3.425-0.868-4.432-2.322l-2.579-3.725c-1.38-1.993-3.651-3.184-6.077-3.184 H8.663c-2.757,0-5,2.243-5,5V34.16c0,0.001,0,9.84,0,9.84c0,0.552,0.448,1,1,1s1-0.448,1-1v-8.837h112.675v74.687 c0,1.654-1.346,3-3,3H8.662c-1.654,0-3-1.346-3-3V62c0-0.552-0.448-1-1-1s-1,0.448-1,1v47.85c0,2.757,2.243,5,5,5h106.675 c2.757,0,5-2.243,5-5V23.382C120.338,20.625,118.094,18.382,115.338,18.382z M5.663,14.151c0-1.654,1.346-3,3-3h35.61 c1.769,0,3.426,0.868,4.432,2.322l2.579,3.725c1.38,1.994,3.652,3.184,6.077,3.184h57.978c1.654,0,3,1.346,3,3v9.781H5.663 V14.151z"/></g><g><circle cx="36.972" cy="18.791" r="2.727" fill="#fff"/><circle cx="27.065" cy="18.791" r="2.727" fill="#d4fbff"/><circle cx="17.158" cy="18.791" r="2.727" fill="#fa759e"/><path fill="#6dc9f7" d="M109.569,29.29h-93.75c-0.829,0-1.5-0.671-1.5-1.5s0.671-1.5,1.5-1.5h93.75c0.829,0,1.5,0.671,1.5,1.5 S110.398,29.29,109.569,29.29z"/></g></svg>