<svg width="110" height="75" viewBox="0 0 110 75" fill="none" xmlns="http://www.w3.org/2000/svg">
<path d="M41.9639 72.9036L2 40.6747L25.2048 35.5181L45.8313 54.2108L77.917 2.71619L66.4578 72.9036H41.9639Z" fill="url(#paint0_linear_121_107)" stroke="#2B885E"/>
<path d="M109 26.494L77.917 2.71619L71.6145 18.759L109 45.8313V26.494Z" fill="url(#paint1_linear_121_107)" stroke="#2B885E"/>
<path d="M76.7711 72.9036L109 45.8313V26.494L80.6386 49.6988L76.7711 72.9036Z" fill="#62E6AA" stroke="#186643"/>
<path d="M25.6345 37.0937L15.6078 51.4177L33.5127 44.2557L25.6345 37.0937Z" fill="#0E975A"/>
<path d="M25.6345 37.0937L15.6078 51.4177L33.5127 44.2557L25.6345 37.0937Z" fill="#0E975A"/>
<path d="M39.3855 29.0723L44.5422 2L2 40.6747L14.8916 51.4177L39.3855 29.0723Z" fill="#6EF5B9" stroke="#186643"/>
<path d="M77.917 3.43243L75.0522 20.6212L80.7818 5.58103L77.917 3.43243Z" fill="#0E975A"/>
<path d="M77.917 3.43243L75.0522 20.6212L80.7818 5.58103L77.917 3.43243Z" fill="#0E975A"/>
<path d="M56.1446 2L41.9639 72.9036H66.4578L78.0603 2H56.1446Z" fill="url(#paint2_linear_121_107)" stroke="#186643"/>
<defs>
<linearGradient id="paint0_linear_121_107" x1="6.29719" y1="35.6613" x2="52.8501" y2="75.7684" gradientUnits="userSpaceOnUse">
<stop stop-color="#18A264"/>
<stop offset="0.515625" stop-color="#42D392"/>
<stop offset="1" stop-color="#0D9659"/>
</linearGradient>
<linearGradient id="paint1_linear_121_107" x1="59.2959" y1="-1.581" x2="121.218" y2="16.6196" gradientUnits="userSpaceOnUse">
<stop stop-color="#18A264"/>
<stop offset="0.515625" stop-color="#42D392"/>
<stop offset="1" stop-color="#0D9659"/>
</linearGradient>
<linearGradient id="paint2_linear_121_107" x1="60.6566" y1="2" x2="56.1446" y2="80.6386" gradientUnits="userSpaceOnUse">
<stop stop-color="#53D39A"/>
<stop offset="0.395833" stop-color="#80F5C1"/>
<stop offset="1" stop-color="#229762"/>
</linearGradient>
</defs>
</svg>
