<svg xmlns="http://www.w3.org/2000/svg"  viewBox="0 0 256 256" width="100px" height="100px"><path fill="#efefef" d="M249.864,48.94v129.03H95.324l4.66-4.73c8.29-8.37,6.89-22.23-2.77-28.81l-6.76-4.63 c-1.14,6.05-6.43,10.43-12.58,10.43h-28.43V48.94H249.864z"/><path fill="#f0c020" d="M190.372,109.208c2.039-23.242-16.275-42.727-39.115-42.628c-20.801,0.091-37.439,16.401-38.824,36.304 c-0.585,8.403,1.493,16.286,5.468,22.899l-4.026,17.093l17.449-3.669C156.142,154.121,187.882,137.581,190.372,109.208z"/><path fill="#f9e5af" d="M171.25,129.033c-0.976-0.977-0.975-2.56,0.002-3.536c0.662-0.661,1.3-1.365,1.896-2.091 c0.876-1.069,2.452-1.221,3.519-0.347c1.067,0.876,1.223,2.452,0.347,3.519c-0.701,0.854-1.45,1.681-2.229,2.458 C173.807,130.012,172.227,130.011,171.25,129.033z M179.186,118.716c-1.292-0.488-1.943-1.93-1.456-3.222 c1.166-3.09,1.778-6.364,1.778-9.766c0-15.55-12.566-28.137-28.138-28.137c-5.463,0-10.883,1.599-15.674,4.623 c-1.169,0.736-2.712,0.389-3.449-0.779c-0.736-1.167-0.388-2.711,0.779-3.448c5.592-3.53,11.935-5.396,18.344-5.396 c18.306,0,33.138,14.808,33.138,33.137c0,3.959-0.706,7.835-2.101,11.531C181.919,118.554,180.475,119.203,179.186,118.716z"/><path fill="#fc5d3d" d="M168.856,105.664l-17.165,17.165l-17.165-17.165c-3.54-3.54-3.54-9.279,0-12.818l0,0 c3.54-3.54,9.279-3.54,12.818,0l4.347,4.347l4.347-4.347c3.54-3.54,9.279-3.54,12.818,0l0,0 C172.396,96.386,172.396,102.125,168.856,105.664z"/><path fill="#72c1e8" d="M249.86,15.361v33.575H49.445V15.361c0-3.215,2.607-5.822,5.822-5.822h188.772 C247.254,9.539,249.86,12.146,249.86,15.361z"/><circle cx="176.374" cy="29.238" r="6.634" fill="#fc5d3d"/><circle cx="201.953" cy="29.238" r="6.634" fill="#f0c020"/><circle cx="227.531" cy="29.238" r="6.634" fill="#13bf6d"/><path fill="#fff" d="M238.014,168.5h-133.56c-1.381,0-2.5-1.119-2.5-2.5s1.119-2.5,2.5-2.5h131.06V62.47c0-1.381,1.119-2.5,2.5-2.5 s2.5,1.119,2.5,2.5V166C240.514,167.38,239.395,168.5,238.014,168.5z"/><path fill="#ffb69f" d="M20.65,177.976l0,31.154c0,2.238,0.194,4.415,0.573,6.504c3.188,17.977,18.783,30.824,36.731,30.828 c18.116,0.004,33.661-13.038,36.784-30.828c0.379-2.115,0.573-4.292,0.573-6.504l0-31.154H20.65z"/><path fill="#7c7b7a" d="M97.214,144.43l-6.76-4.63c-1.14,6.05-6.43,10.43-12.58,10.43h-28.43h-11.85c-9.25,0-16.94,7.49-16.94,16.94 v10.81h74.66l0.01-0.01l4.66-4.73C108.274,164.87,106.874,151.01,97.214,144.43z"/><polygon fill="#afafaf" points="20.65,177.976 20.65,199.108 35.643,177.974"/><polygon fill="#afafaf" points="80.318,177.974 95.312,199.108 95.312,177.976"/><path fill="#ffb69f" d="M20.65,209.129c0,2.238,0.194,4.415,0.573,6.504h-4.345c-5.94,0-10.743-4.812-10.743-10.743 c0-5.921,4.788-10.743,10.743-10.743h3.772V209.129z"/><path fill="#ffb69f" d="M109.826,204.89c0,5.922-4.789,10.743-10.743,10.743h-4.345c0.379-2.115,0.573-4.292,0.573-6.504v-14.982 h3.772C105.023,194.148,109.826,198.96,109.826,204.89z"/><path d="M188.49,118.41c-1.24-0.52-2.74,0.1-3.261,1.33c-0.01,0.01-0.01,0.01-0.01,0.01c-0.53,1.27,0.07,2.74,1.34,3.28 c1.235,0.517,2.725-0.043,3.271-1.34C190.344,120.464,189.823,118.97,188.49,118.41z"/><path d="M111.439,142.3c-0.415,1.796,1.192,3.402,2.95,3.02l16.51-3.47c17.975,10.241,40.874,5.677,53.61-10.99 c0.79-1.021,0.701-2.592-0.47-3.5c-1.061-0.82-2.69-0.6-3.5,0.47c-11.707,15.298-32.431,18.549-47.931,9.23 c-0.54-0.32-1.189-0.43-1.8-0.3l-13.6,2.86l3.12-13.27c0.149-0.62,0.04-1.3-0.29-1.85c-4.007-6.675-5.67-14.36-5.11-21.44 c1.273-18.524,16.884-33.98,36.5-33.98c21.569,0,38.405,18.525,36.45,39.91c-0.05,0.58-0.12,1.17-0.2,1.77 c-0.186,1.365,0.768,2.632,2.14,2.82c1.351,0.19,2.631-0.79,2.82-2.13c0-0.01,0-0.01,0-0.02c0.09-0.66,0.16-1.33,0.22-2 c2.164-24.71-17.222-45.35-41.43-45.35c-22.023,0-39.978,17.184-41.49,38.63c-0.584,8.337,1.315,16.467,5.301,23.47L111.439,142.3z"/><path d="M154.271,91.079l-2.579,2.579l-2.579-2.579c-4.508-4.508-11.846-4.508-16.354,0c-4.52,4.519-4.521,11.835,0,16.354 l17.165,17.165c0.977,0.977,2.559,0.977,3.535,0l17.165-17.165c4.509-4.509,4.509-11.845,0-16.354 C166.116,86.57,158.778,86.57,154.271,91.079z M167.089,94.614c2.559,2.56,2.559,6.724,0,9.283l-15.397,15.397l-15.397-15.397 c-2.565-2.564-2.567-6.717,0-9.282c2.562-2.561,6.727-2.557,9.283,0l4.347,4.347c0.977,0.977,2.559,0.977,3.535,0l4.347-4.346 C160.366,92.055,164.53,92.055,167.089,94.614z"/><path d="M176.37,20.11c-5.03,0-9.13,4.09-9.13,9.13c0,5.03,4.1,9.13,9.13,9.13c5.04,0,9.14-4.1,9.14-9.13 C185.51,24.2,181.41,20.11,176.37,20.11z M176.37,33.37c-2.271,0-4.13-1.86-4.13-4.13c0-2.28,1.859-4.13,4.13-4.14 c2.279,0.01,4.13,1.86,4.14,4.14C180.5,31.51,178.649,33.37,176.37,33.37z"/><path d="M201.95,20.11c-5.03,0-9.131,4.09-9.131,9.13c0,5.03,4.101,9.13,9.131,9.13c5.04,0,9.13-4.1,9.13-9.13 C211.08,24.2,206.99,20.11,201.95,20.11z M201.95,33.37c-2.271,0-4.131-1.86-4.131-4.13c0-2.28,1.86-4.13,4.131-4.14 c2.279,0.01,4.13,1.86,4.14,4.14C206.08,31.51,204.229,33.37,201.95,33.37z"/><path d="M227.53,20.1c-5.03,0.01-9.131,4.1-9.131,9.14c0,5.03,4.101,9.13,9.131,9.13c5.039,0,9.13-4.1,9.13-9.13 C236.66,24.2,232.569,20.11,227.53,20.1z M227.53,33.37c-2.271,0-4.131-1.86-4.131-4.13c0-2.28,1.86-4.13,4.131-4.14 c2.279,0.01,4.13,1.86,4.13,4.14C231.66,31.51,229.81,33.37,227.53,33.37z"/><path d="M148.757,26.738H65.14c-1.381,0-2.5,1.119-2.5,2.5s1.119,2.5,2.5,2.5h83.617c1.381,0,2.5-1.119,2.5-2.5 S150.138,26.738,148.757,26.738z"/><path d="M252.364,177.976c0-7.254-0.004-156.161-0.004-162.615c0-4.589-3.733-8.322-8.322-8.322H55.267 c-4.589,0-8.322,3.733-8.322,8.322c0,7.165,0,125.382,0,132.369h-9.351c-10.719,0-19.439,8.721-19.439,19.44 c0,11.978-0.005,7.364-0.005,24.479h-1.271c-7.303,0-13.243,5.94-13.243,13.243s5.94,13.243,13.243,13.243h2.307 c4.198,18.065,20.275,30.827,38.764,30.827c2.93,0,5.85-0.32,8.699-0.96c1.341-0.3,2.19-1.64,1.891-2.98 c-0.29-1.31-1.66-2.19-2.98-1.9c-2.49,0.56-5.05,0.84-7.609,0.84c-19.355,0-34.8-15.716-34.8-34.831v-9.224l13.781-19.425H79.03 l13.78,19.423v9.228c0,9.097-3.547,18.381-10.96,25.35c-1.041,0.977-1.032,2.567-0.109,3.53c0.909,0.97,2.569,1.02,3.529,0.11 c5.515-5.157,9.669-12.046,11.504-19.986h2.31c7.302,0,13.242-5.94,13.242-13.243s-5.94-13.243-13.242-13.243h-1.271v-11.172 h152.053C251.245,180.476,252.364,179.357,252.364,177.976z M16.879,213.133c-4.545,0-8.243-3.698-8.243-8.243 s3.698-8.243,8.243-8.243h1.271v12.482c0,1.331,0.095,2.954,0.2,4.003H16.879z M51.944,15.361c0-1.832,1.49-3.322,3.322-3.322 h188.771c1.832,0,3.322,1.49,3.322,3.322v31.075H51.944V15.361z M23.15,191.264v-10.784h7.651L23.15,191.264z M92.81,191.261 l-7.649-10.781h7.649V191.261z M99.083,196.648c4.545,0,8.242,3.698,8.242,8.243s-3.697,8.243-8.242,8.243H97.61 c0.101-1,0.201-2.756,0.201-4.004v-10.021v-2.46H99.083z M94.272,175.476c0,0-71.115,0-71.118,0v-8.306 c0-7.962,6.478-14.44,14.439-14.44h40.28c6.104,0,11.498-3.613,13.933-8.973c0.028,0.019,4,2.74,4,2.74 c8.398,5.721,9.567,17.75,2.396,24.989L94.272,175.476z M247.364,175.476H101.291c10.497-10.655,7.726-26.029-2.665-33.109 l-6.759-4.63c-1.488-1.018-3.537-0.173-3.87,1.6c-0.916,4.863-5.173,8.393-10.123,8.393h-25.93V51.44h195.42V175.476z"/><path d="M76.63,244.31c1.21-0.64,1.68-2.16,1.03-3.38c-0.647-1.232-2.181-1.663-3.38-1.03H74.27 c-1.233,0.68-1.662,2.179-1.029,3.38C73.914,244.538,75.468,244.954,76.63,244.31z"/><path d="M57.979,231.15c6.176-0.022,11.266-3.889,13.221-9.16c0.479-1.29-0.181-2.73-1.46-3.21c-1.271-0.48-2.75,0.21-3.221,1.46 c-1.33,3.53-4.75,5.91-8.54,5.91c-3.779,0-7.21-2.38-8.52-5.9c-0.47-1.26-1.96-1.95-3.22-1.48c-1.29,0.49-1.95,1.93-1.471,3.22 c0,0,0,0,0,0.01C46.751,227.323,51.863,231.128,57.979,231.15z"/><path d="M38.108,197.067v2.198c0,1.381,1.119,2.5,2.5,2.5s2.5-1.119,2.5-2.5v-2.198c0-1.381-1.119-2.5-2.5-2.5 S38.108,195.687,38.108,197.067z"/><path d="M75.353,201.765c1.381,0,2.5-1.119,2.5-2.5v-2.198c0-1.381-1.119-2.5-2.5-2.5s-2.5,1.119-2.5,2.5v2.198 C72.853,200.646,73.972,201.765,75.353,201.765z"/><path d="M60.48,209.294v-10.029c0-1.381-1.119-2.5-2.5-2.5s-2.5,1.119-2.5,2.5v10.029c0,1.381,1.119,2.5,2.5,2.5 S60.48,210.675,60.48,209.294z"/></svg>