<svg xmlns="http://www.w3.org/2000/svg"  viewBox="0 0 128 128" width="100px" height="100px"><path fill="#e6e7e8" d="M123.4,110.789H114.4V52.263a7.008,7.008,0,0,0-7-7H84.462C82.247,33.7,77.034,22.135,67.034,9.687a1.034,1.034,0,0,0-1.559,0c-10.122,12.6-15.467,24.149-17.808,35.576H24.6a7.008,7.008,0,0,0-7,7v58.526h-9a1,1,0,0,0-1,1v3.934a6.953,6.953,0,0,0,6.946,6.944h102.9a6.953,6.953,0,0,0,6.947-6.944v-3.934A1,1,0,0,0,123.4,110.789Z"/><path fill="#6dc9f7" d="M109.4,107.789V48.263a6,6,0,0,0-6-6H20.6a6,6,0,0,0-6,6v59.526Z"/><path fill="#fff" d="M100.4,42.263h3a6,6,0,0,1,6,6v59.526h-3V48.263A6,6,0,0,0,100.4,42.263Z"/><path fill="#d4fbff" d="M102.372,107.789V53.1a2,2,0,0,0-2-2H23.627a2,2,0,0,0-2,2v54.689Z"/><path fill="#0089ef" d="M4.605,107.789v3.933a5.945,5.945,0,0,0,5.945,5.945h102.9a5.946,5.946,0,0,0,5.947-5.945v-3.933Z"/><path fill="#0089ef" d="M4.605,107.789v3.933a5.945,5.945,0,0,0,5.945,5.945h102.9a5.946,5.946,0,0,0,5.947-5.945v-3.933Z"/><path fill="#6dc9f7" d="M42.949,107.789v1.991a3.009,3.009,0,0,0,3.009,3.009H78.041a3.01,3.01,0,0,0,3.01-3.009v-1.991Z"/><path fill="#ffd7e5" d="M79.394,73.436H94.5S93.312,53.952,80.172,45.458C81.338,54.387,80.829,63.529,79.394,73.436Z"/><path fill="#ffd7e5" d="M43.968,45.371C30.7,53.817,29.5,73.436,29.5,73.436H44.515C43.074,63.5,42.669,54.328,43.968,45.371Z"/><path fill="#0089ef" d="M44.565,73.436h34.87a0,0,0,0,1,0,0V80.19a4,4,0,0,1-4,4H48.565a4,4,0,0,1-4-4V73.436A0,0,0,0,1,44.565,73.436Z"/><path fill="#fa759e" d="M44.515,73.437C41,49.174,43.63,29.5,62.254,6.313,80.879,29.5,82.909,49.174,79.394,73.437Z"/><path fill="#fff" d="M55.053,62.779a1.713,1.713,0,0,1-.992-3.11l.495-.351A5.312,5.312,0,0,0,56.8,54.989V38.734a6.331,6.331,0,0,1,6.324-6.324A6.21,6.21,0,0,1,67.28,43.231,7.433,7.433,0,0,1,63.226,56.9h-.57a1.713,1.713,0,1,1,0-3.425h.57a4.01,4.01,0,0,0,1.445-7.75l-2.591-1a1.712,1.712,0,0,1,.617-3.31h.422a2.787,2.787,0,0,0,0-5.573,2.9,2.9,0,0,0-2.9,2.9V54.989a8.743,8.743,0,0,1-3.685,7.124l-.494.351A1.707,1.707,0,0,1,55.053,62.779Z"/><path fill="#6dc9f7" d="M52.395,84.19H71.605a0,0,0,0,1,0,0v4.533a2,2,0,0,1-2,2H54.395a2,2,0,0,1-2-2V84.19A0,0,0,0,1,52.395,84.19Z"/><path fill="#3a2c60" d="M21.627,94.154a1,1,0,0,0,1-1v-12a1,1,0,0,0-2,0v12A1,1,0,0,0,21.627,94.154Z"/><path fill="#3a2c60" d="M119.4,106.789H110.4V48.263a7.008,7.008,0,0,0-7-7H80.462C78.247,29.7,73.034,18.135,63.033,5.687a1.033,1.033,0,0,0-1.558,0c-10.122,12.6-15.467,24.149-17.808,35.576H20.6a7.008,7.008,0,0,0-7,7v58.526H4.605a1,1,0,0,0-1,1v3.933a6.953,6.953,0,0,0,6.945,6.946h102.9a6.955,6.955,0,0,0,6.947-6.946v-3.933A1,1,0,0,0,119.4,106.789ZM103.4,43.263a5.006,5.006,0,0,1,5,5v58.526h-5.029V53.1a3,3,0,0,0-3-3H86.787a26.521,26.521,0,0,0-5.734-5.25c-.074-.529-.152-1.058-.238-1.588ZM53.4,85.191H70.606v3.532a1,1,0,0,1-1,1H54.4a1,1,0,0,1-1-1Zm-4.83-2a3,3,0,0,1-3-3V74.437h32.87v5.754a3,3,0,0,1-3,3ZM42.672,47.53a99.045,99.045,0,0,0,.7,24.907H30.6C31.056,68.546,33.289,54.924,42.672,47.53ZM93.4,72.437H80.541a103.7,103.7,0,0,0,.841-24.876C90.725,54.963,92.945,68.552,93.4,72.437ZM62.254,7.92C80.026,30.514,81.747,49.473,78.526,72.437H45.383C42.313,50.455,44.137,30.949,62.254,7.92ZM15.6,48.263a5.006,5.006,0,0,1,5-5H43.287c-.089.512-.175,1.023-.252,1.534a26.433,26.433,0,0,0-5.822,5.3H23.627a3,3,0,0,0-3,3V76.654a1,1,0,0,0,2,0V53.1a1,1,0,0,1,1-1H35.709C29.332,61.317,28.54,72.749,28.5,73.376a1,1,0,0,0,1,1.061H43.565v5.754a5.006,5.006,0,0,0,5,5H51.4v3.532a3,3,0,0,0,3,3H69.606a3,3,0,0,0,3-3V85.191h2.829a5.006,5.006,0,0,0,5-5V74.437H94.5a1,1,0,0,0,1-1.061c-.038-.625-.829-12.057-7.206-21.275h12.08a1,1,0,0,1,1,1v53.688H22.627v-9.1a1,1,0,0,0-2,0v9.1H15.6Zm102.8,63.459a4.952,4.952,0,0,1-4.947,4.946H10.55a4.951,4.951,0,0,1-4.945-4.946v-2.933H118.4Z"/><path fill="#3a2c60" d="M69.015,101.645a1,1,0,0,0,1-1V94.739a1,1,0,0,0-2,0v5.906A1,1,0,0,0,69.015,101.645Z"/><path fill="#3a2c60" d="M62,105.3a1,1,0,0,0,1-1v-9.56a1,1,0,0,0-2,0v9.56A1,1,0,0,0,62,105.3Z"/><path fill="#3a2c60" d="M54.985,101.645a1,1,0,0,0,1-1V94.739a1,1,0,0,0-2,0v5.906A1,1,0,0,0,54.985,101.645Z"/></svg>